<?xml version="1.0" standalone="no"?>
<!DOCTYPE svg PUBLIC "-//W3C//DTD SVG 20010904//EN"
 "http://www.w3.org/TR/2001/REC-SVG-20010904/DTD/svg10.dtd">
<svg version="1.0" xmlns="http://www.w3.org/2000/svg"
 width="752.000000pt" height="752.000000pt" viewBox="0 0 752.000000 752.000000"
 preserveAspectRatio="xMidYMid meet">
<metadata>
Created by potrace 1.16, written by Peter Selinger 2001-2019
</metadata>
<g transform="translate(0.000000,752.000000) scale(0.100000,-0.100000)"
fill="#F6F6F6" stroke="none">
<path d="M2393 5890 c-40 -24 -63 -67 -63 -119 l0 -40 -307 -3 c-353 -3 -359
-5 -394 -84 -19 -41 -20 -65 -17 -411 3 -403 2 -393 65 -434 26 -18 61 -19
631 -19 500 0 608 2 630 14 58 30 83 71 147 242 l63 169 174 3 173 2 25 -47
c38 -72 94 -106 180 -111 56 -3 78 0 114 17 45 22 88 69 106 115 l10 26 155 0
155 0 0 -160 c0 -182 9 -217 62 -250 32 -19 49 -20 516 -20 l482 0 0 -403 0
-403 -35 -12 c-53 -20 -112 -93 -125 -158 -21 -102 37 -213 128 -245 l32 -11
0 -404 0 -404 -126 0 c-99 0 -132 -4 -154 -16 -36 -22 -59 -62 -66 -118 l-7
-46 -296 0 c-326 0 -341 -3 -385 -63 -20 -27 -21 -44 -24 -293 l-3 -264 -537
0 -537 0 -27 50 c-21 37 -41 57 -78 78 -49 26 -50 28 -50 75 l0 47 453 0 c280
0 466 4 489 10 56 16 119 69 147 125 l26 49 3 326 3 325 158 -3 c195 -4 198
-2 207 106 l7 73 41 21 c23 11 61 34 85 51 49 34 40 34 158 -14 52 -21 74 -4
145 123 35 62 67 121 71 131 11 30 -9 62 -67 102 l-56 38 0 106 0 106 54 35
c90 57 91 70 10 213 -93 162 -101 167 -204 121 l-57 -25 -61 39 c-33 21 -74
45 -91 52 -26 11 -31 18 -31 49 -1 57 -16 123 -31 132 -23 14 -335 11 -347 -3
-5 -7 -13 -48 -17 -90 -7 -73 -9 -77 -37 -89 -16 -7 -57 -30 -90 -51 l-61 -39
-59 25 c-90 39 -109 36 -146 -25 l-22 -37 -68 5 c-37 2 -72 6 -78 8 -7 2 -13
42 -16 107 -4 117 -17 150 -81 202 -34 27 -48 31 -112 34 -63 4 -75 7 -81 24
-3 11 -20 28 -37 39 -29 17 -53 19 -276 19 l-244 0 -38 -40 c-35 -36 -43 -40
-88 -40 -61 0 -97 -13 -134 -48 -48 -45 -60 -79 -66 -192 l-6 -105 -72 -6
c-59 -4 -78 -10 -99 -30 -34 -32 -54 -71 -54 -109 l0 -30 -168 0 c-233 0 -304
-25 -347 -120 -18 -40 -18 -53 -6 -298 17 -340 23 -384 56 -428 15 -19 42 -42
60 -51 l34 -16 3 -361 3 -362 26 -49 c28 -56 91 -109 147 -125 23 -6 209 -10
490 -10 l452 0 0 -50 c0 -47 -2 -51 -32 -63 -90 -38 -143 -154 -118 -258 18
-73 86 -142 156 -157 109 -23 223 35 256 130 l10 28 539 0 539 0 0 -51 c0 -63
24 -116 64 -140 29 -18 62 -19 630 -19 l598 0 40 22 c21 12 47 36 57 53 35 56
281 732 281 769 0 25 -8 45 -29 68 l-29 33 -156 3 -156 4 0 49 c0 40 -5 54
-31 83 -19 22 -43 38 -65 42 l-34 6 0 402 0 401 50 27 c83 46 126 151 100 246
-13 51 -72 119 -117 139 l-33 13 0 405 0 405 61 0 c72 0 121 20 153 64 31 42
286 728 286 769 0 49 -32 94 -77 106 -21 6 -95 11 -165 11 l-128 0 0 43 c0 51
-28 100 -70 122 -26 14 -63 16 -236 13 l-206 -3 -33 -37 c-26 -27 -36 -49 -41
-87 l-6 -50 -308 -3 c-294 -3 -310 -4 -337 -24 -54 -39 -63 -74 -63 -236 l0
-148 -155 0 -155 0 -14 34 c-35 84 -146 146 -233 130 -80 -14 -152 -71 -175
-136 l-10 -28 -154 0 c-85 0 -154 2 -154 5 0 2 20 60 45 128 50 139 56 191 25
230 -29 37 -76 47 -217 47 l-123 0 0 38 c0 50 -29 101 -71 124 -29 16 -59 18
-229 18 -176 0 -198 -2 -227 -20z m411 -116 c9 -24 7 -857 -2 -872 -7 -10
-121 -12 -538 -10 l-529 3 -3 344 c-2 245 1 348 9 357 9 11 74 14 336 14 204
0 331 4 344 10 16 9 19 22 19 75 0 101 -13 95 185 95 148 0 174 -2 179 -16z
m2621 -434 l0 -445 -529 -3 c-417 -2 -531 0 -538 10 -13 22 -10 682 4 696 9 9
99 12 344 12 333 0 333 0 348 22 10 14 16 44 16 84 0 33 3 64 7 68 4 3 84 5
177 4 l171 -3 0 -445z m-2260 253 c-4 -10 -56 -150 -116 -310 -60 -161 -114
-303 -119 -315 -5 -15 -9 101 -9 310 l-1 332 126 0 c116 0 126 -1 119 -17z
m2625 12 c0 -5 -220 -610 -239 -655 -7 -18 -10 76 -10 318 l-1 342 125 0 c69
0 125 -2 125 -5z m-2023 -255 c55 -33 62 -108 16 -154 -51 -52 -128 -38 -160
29 -22 46 -8 92 36 122 42 28 66 29 108 3z m-617 -955 l0 -105 -205 0 -205 0
0 105 0 105 205 0 205 0 0 -105z m-520 -5 c0 -26 -3 -30 -29 -30 -16 0 -33 -6
-38 -12 -6 -7 -13 -54 -15 -103 -6 -100 -18 -133 -70 -182 -44 -42 -76 -53
-154 -53 -48 0 -66 4 -70 15 -11 28 16 45 70 45 59 0 111 23 139 61 15 21 20
50 25 135 4 95 8 111 28 131 17 17 34 23 69 23 43 0 45 -1 45 -30z m741 20
c35 -19 49 -64 49 -155 0 -136 40 -185 153 -185 l58 0 -16 -30 c-14 -26 -21
-30 -60 -30 -56 0 -84 11 -129 51 -54 46 -67 80 -75 186 -7 99 -14 113 -58
113 -19 0 -23 6 -23 30 0 28 2 30 41 30 22 0 49 -5 60 -10z m1009 -82 c0 -56
15 -96 40 -109 8 -4 40 -19 70 -33 30 -14 77 -43 104 -66 26 -22 56 -40 66
-40 10 0 43 11 75 25 32 14 59 25 60 23 2 -2 19 -30 38 -64 l34 -60 -54 -39
c-29 -21 -53 -41 -54 -44 0 -3 -2 -77 -2 -165 l-2 -158 28 -24 c15 -13 40 -31
56 -40 l28 -17 -34 -61 c-19 -33 -36 -62 -38 -64 -1 -2 -28 9 -60 23 -32 14
-63 25 -70 25 -7 0 -35 -18 -63 -40 -48 -38 -144 -90 -169 -90 -28 0 -53 -52
-53 -111 l0 -59 -79 0 -80 0 -7 70 c-3 38 -12 74 -18 79 -6 5 -35 19 -65 30
-49 20 -96 49 -163 103 -30 23 -44 21 -130 -16 l-37 -16 -36 61 c-19 33 -35
62 -35 63 0 2 23 18 50 36 28 18 55 40 60 49 5 10 4 51 -2 100 -7 57 -6 102 1
143 5 32 8 65 5 72 -3 7 -30 30 -60 51 -30 21 -53 41 -52 44 23 48 60 111 67
115 5 3 33 -5 63 -19 29 -14 61 -25 71 -25 10 0 45 20 77 45 32 24 89 59 126
77 l69 33 8 73 9 72 79 0 79 0 0 -52z m-1430 -153 c225 0 250 2 268 18 20 18
20 18 27 -33 4 -28 18 -72 31 -98 13 -26 24 -48 24 -49 0 -2 -160 -3 -355 -3
l-354 0 24 35 c21 32 45 112 45 152 0 14 3 13 21 -3 20 -18 39 -19 269 -19z
m755 -299 c18 -12 20 -23 17 -119 l-3 -105 -60 -42 c-80 -56 -80 -72 9 -225
37 -65 75 -123 84 -129 17 -10 25 -8 136 35 28 12 36 11 60 -4 15 -10 51 -32
81 -49 46 -27 51 -33 35 -39 -10 -4 -182 -8 -380 -8 l-362 -1 -4 55 c-3 35
-12 63 -24 76 -40 45 -68 49 -346 49 -230 0 -267 -2 -298 -18 -46 -23 -80 -75
-80 -123 l0 -39 -357 1 c-383 0 -411 3 -445 49 -16 22 -20 60 -31 304 -13 298
-12 310 33 333 39 20 1907 19 1935 -1z m1719 -57 c24 -27 27 -38 23 -71 -6
-47 -21 -67 -64 -85 -63 -26 -133 26 -133 97 1 93 109 130 174 59z m-2214
-599 l0 -30 -260 0 -260 0 0 30 0 30 260 0 260 0 0 -30z m-640 -170 c0 -48 26
-98 62 -120 31 -19 49 -20 318 -20 213 1 291 4 308 14 37 20 62 66 62 114 l0
42 345 0 345 0 0 -280 0 -280 -152 0 c-135 0 -157 -2 -186 -20 -43 -27 -70
-73 -78 -137 l-6 -53 -644 0 -644 0 0 43 c0 58 -36 125 -80 148 -29 16 -58 19
-182 19 l-148 0 0 280 0 280 340 0 340 0 0 -30z m640 5 l0 -25 -260 0 -260 0
0 25 0 25 260 0 260 0 0 -25z m2218 -870 c2 -405 1 -441 -15 -452 -22 -17
-1014 -19 -1044 -3 -18 10 -19 25 -19 353 0 254 3 346 12 355 9 9 99 12 344
12 333 0 333 0 348 22 10 14 16 44 16 84 0 33 3 64 7 68 4 3 84 5 177 4 l171
-3 3 -440z m362 259 c0 -9 -241 -668 -246 -673 -2 -2 -4 149 -4 337 l0 342
125 0 c69 0 125 -3 125 -6z m-3610 -63 c5 -11 10 -31 10 -45 l0 -26 -100 0
c-108 0 -146 11 -174 52 -9 12 -16 26 -16 30 0 5 61 8 135 8 123 0 135 -2 145
-19z m1820 11 c0 -4 -7 -18 -16 -30 -28 -41 -66 -52 -174 -52 l-100 0 0 26 c0
14 5 34 10 45 10 17 22 19 145 19 74 0 135 -3 135 -8z m-984 -443 c51 -48 35
-137 -29 -164 -112 -47 -196 112 -94 176 39 24 90 19 123 -12z"/>
<path d="M4187 4065 c-93 -35 -176 -126 -197 -217 -16 -66 -8 -172 17 -229 29
-66 86 -124 151 -156 49 -24 69 -28 142 -28 70 0 94 4 135 25 114 55 177 163
178 300 1 125 -58 227 -165 285 -45 24 -66 29 -138 32 -57 2 -98 -2 -123 -12z
m227 -132 c140 -99 103 -331 -60 -379 -75 -22 -134 -5 -194 56 -75 74 -87 164
-34 257 26 44 67 79 112 94 49 16 132 3 176 -28z"/>
</g>
</svg>
